<?xml version="1.0" standalone="no"?>
<!DOCTYPE svg PUBLIC "-//W3C//DTD SVG 20010904//EN"
 "http://www.w3.org/TR/2001/REC-SVG-20010904/DTD/svg10.dtd">
<svg version="1.0" xmlns="http://www.w3.org/2000/svg"
 width="512.000000pt" height="512.000000pt" viewBox="0 0 512.000000 512.000000"
 preserveAspectRatio="xMidYMid meet">
<metadata>
Created by potrace 1.14, written by Peter Selinger 2001-2017
</metadata>
<g transform="translate(0.000000,512.000000) scale(0.100000,-0.100000)"
fill="#000000" stroke="none">
<path d="M25 5095 l-25 -24 0 -2509 c0 -2456 0 -2510 19 -2533 l19 -24 1644
-2 c1480 -3 1650 -1 1699 13 130 38 125 33 903 812 405 406 747 753 760 772
12 19 34 62 47 95 l24 60 3 1658 2 1658 -24 24 -25 25 -2511 0 -2511 0 -24
-25z"/>
</g>
</svg>
